<svg width="32" height="22" viewBox="0 0 32 22" fill="none" xmlns="http://www.w3.org/2000/svg">
<path d="M30.7733 15L29.3333 6.88002C29.2533 6.14669 28.68 5.54669 27.5867 4.93336C27.3743 4.60879 27.0937 4.33447 26.7643 4.12952C26.435 3.92457 26.065 3.79392 25.68 3.74669C25.3237 3.15643 24.7574 2.72263 24.0948 2.53224C23.4321 2.34185 22.722 2.40892 22.1067 2.72002C21.8264 2.34432 21.452 2.04914 21.0213 1.86421C20.5906 1.67929 20.1188 1.61116 19.6533 1.66669C19.413 1.24675 19.0628 0.900125 18.6405 0.66396C18.2182 0.427796 17.7396 0.310991 17.2559 0.326062C16.7723 0.341133 16.3019 0.487511 15.8951 0.749513C15.4883 1.01151 15.1604 1.37926 14.9467 1.81336C14.7402 1.73829 14.5252 1.68903 14.3067 1.66669C14.0732 1.25945 13.7363 0.921078 13.3301 0.68576C12.9239 0.450442 12.4628 0.326521 11.9933 0.326521C11.5239 0.326521 11.0628 0.450442 10.6566 0.68576C10.2504 0.921078 9.91352 1.25945 9.68 1.66669C9.27333 1.61252 8.85964 1.65292 8.47112 1.78473C8.08261 1.91655 7.72975 2.13623 7.44 2.42669C7.18853 2.35611 6.92771 2.32463 6.66667 2.33336C5.95942 2.33336 5.28115 2.61431 4.78105 3.1144C4.28095 3.6145 4 4.29278 4 5.00002C4 5.00002 4 5.08002 4 5.13336C3.65892 5.29254 3.36033 5.53013 3.1286 5.82674C2.89688 6.12335 2.73859 6.47056 2.66667 6.84002L1.22667 15C0.869792 15.2025 0.570084 15.4922 0.355561 15.8419C0.141038 16.1917 0.0187059 16.5901 0 17C0.0142708 17.3138 0.0968231 17.6208 0.241901 17.8994C0.386978 18.1781 0.591089 18.4217 0.84 18.6134C0.894413 18.6839 0.962419 18.7429 1.04 18.7867C3.46667 20.68 9.76 21.6667 16 21.6667C22.24 21.6667 28.5333 20.68 30.96 18.7734C31.0376 18.7295 31.1056 18.6706 31.16 18.6C31.4072 18.4098 31.6104 18.1683 31.7554 17.8921C31.9004 17.6159 31.9838 17.3116 32 17C31.9813 16.5901 31.859 16.1917 31.6444 15.8419C31.4299 15.4922 31.1302 15.2025 30.7733 15ZM5.04 6.08002C5.16603 6.00359 5.26318 5.88755 5.31625 5.75004C5.36933 5.61253 5.37533 5.46131 5.33333 5.32002C5.32049 5.21374 5.32049 5.1063 5.33333 5.00002C5.33373 4.76747 5.39495 4.53906 5.51091 4.33748C5.62687 4.1359 5.79353 3.96815 5.99436 3.85089C6.19518 3.73363 6.42319 3.67094 6.65573 3.66903C6.88828 3.66712 7.11728 3.72607 7.32 3.84002C7.46944 3.92454 7.64573 3.94814 7.81214 3.90592C7.97856 3.8637 8.12226 3.7589 8.21333 3.61336C8.38024 3.35305 8.63242 3.15885 8.92673 3.06399C9.22104 2.96913 9.53917 2.97951 9.82667 3.09336C9.9107 3.12015 9.99921 3.13001 10.0871 3.12235C10.1749 3.11469 10.2604 3.08968 10.3385 3.04875C10.4167 3.00783 10.4859 2.95181 10.5422 2.88394C10.5986 2.81606 10.6408 2.73769 10.6667 2.65336C10.744 2.38294 10.9049 2.14391 11.1264 1.97047C11.3478 1.79702 11.6184 1.69804 11.8995 1.68769C12.1806 1.67733 12.4577 1.75613 12.6913 1.91281C12.9249 2.06949 13.1029 2.29603 13.2 2.56002C13.2636 2.69312 13.3639 2.80526 13.4891 2.88322C13.6143 2.96118 13.7592 3.00171 13.9067 3.00002C14.2527 2.99434 14.5874 3.12344 14.84 3.36002C14.9308 3.45992 15.0498 3.5299 15.1812 3.56071C15.3126 3.59152 15.4503 3.58171 15.576 3.53257C15.7017 3.48344 15.8096 3.39729 15.8853 3.28554C15.961 3.17378 16.001 3.04167 16 2.90669C15.9664 2.55307 16.0747 2.20058 16.301 1.92678C16.5273 1.65298 16.853 1.48028 17.2067 1.44669C17.5603 1.41309 17.9128 1.52135 18.1866 1.74765C18.4604 1.97394 18.6331 2.29973 18.6667 2.65336C18.6917 2.744 18.7357 2.82832 18.7957 2.90077C18.8556 2.97322 18.9303 3.03216 19.0146 3.07372C19.099 3.11527 19.1912 3.13851 19.2852 3.14189C19.3792 3.14528 19.4729 3.12874 19.56 3.09336C19.7245 3.02912 19.9001 2.99819 20.0766 3.00236C20.2531 3.00654 20.4271 3.04574 20.5883 3.11768C20.7496 3.18963 20.8949 3.29288 21.016 3.42146C21.137 3.55004 21.2313 3.70138 21.2933 3.86669C21.3319 3.97506 21.3978 4.07162 21.4847 4.14698C21.5716 4.22234 21.6765 4.27394 21.7892 4.29676C21.902 4.31957 22.0187 4.31283 22.1281 4.27719C22.2374 4.24155 22.3357 4.17822 22.4133 4.09336C22.5699 3.92712 22.7665 3.80388 22.9844 3.73543C23.2022 3.66699 23.434 3.65565 23.6575 3.70249C23.881 3.74933 24.0887 3.85278 24.2607 4.00294C24.4328 4.15309 24.5634 4.34491 24.64 4.56002C24.7026 4.69107 24.8008 4.80183 24.9234 4.87965C25.0461 4.95747 25.1881 4.99918 25.3333 5.00002C25.5791 4.99578 25.8212 5.05953 26.0329 5.18424C26.2447 5.30894 26.4179 5.48975 26.5333 5.70669C26.6031 5.83029 26.7106 5.92838 26.84 5.98669C27.72 6.41335 28.04 6.78669 28.04 7.00002C28.04 7.90669 23.8 9.66669 16.04 9.66669C8.28 9.66669 4 7.90669 4 7.00002C4 6.81335 4.26667 6.46669 5.04 6.08002Z" fill="#585CC6"/>
</svg>
